<mxfile host="app.diagrams.net" agent="Mozilla/5.0 (Windows NT 10.0; Win64; x64) AppleWebKit/537.36 (KHTML, like Gecko) Chrome/135.0.0.0 Safari/537.36" version="26.2.14">
  <diagram name="Page-1" id="2a216829-ef6e-dabb-86c1-c78162f3ba2b">
    <mxGraphModel dx="1226" dy="629" grid="1" gridSize="10" guides="1" tooltips="1" connect="1" arrows="1" fold="1" page="1" pageScale="1" pageWidth="850" pageHeight="1100" background="none" math="0" shadow="0">
      <root>
        <mxCell id="0" />
        <mxCell id="1" parent="0" />
        <mxCell id="0G2xE4ultLcCvQhKIERM-3" value="&lt;span style=&quot;font-weight: normal;&quot;&gt;&lt;font style=&quot;font-size: 14px;&quot;&gt;User&lt;/font&gt;&lt;/span&gt;" style="swimlane;horizontal=0;whiteSpace=wrap;html=1;startSize=23;" parent="1" vertex="1">
          <mxGeometry x="180" y="80" width="1220" height="140" as="geometry" />
        </mxCell>
        <mxCell id="afZQ3mGeGORyMhH4Kc8F-34" style="edgeStyle=orthogonalEdgeStyle;rounded=0;orthogonalLoop=1;jettySize=auto;html=1;entryX=0;entryY=0.5;entryDx=0;entryDy=0;entryPerimeter=0;" parent="0G2xE4ultLcCvQhKIERM-3" source="afZQ3mGeGORyMhH4Kc8F-29" target="afZQ3mGeGORyMhH4Kc8F-32" edge="1">
          <mxGeometry relative="1" as="geometry">
            <mxPoint x="970" y="70" as="targetPoint" />
          </mxGeometry>
        </mxCell>
        <mxCell id="afZQ3mGeGORyMhH4Kc8F-29" value="Evaluate Route" style="points=[[0.25,0,0],[0.5,0,0],[0.75,0,0],[1,0.25,0],[1,0.5,0],[1,0.75,0],[0.75,1,0],[0.5,1,0],[0.25,1,0],[0,0.75,0],[0,0.5,0],[0,0.25,0]];shape=mxgraph.bpmn.task2;whiteSpace=wrap;rectStyle=rounded;size=10;html=1;container=1;expand=0;collapsible=0;taskMarker=service;" parent="0G2xE4ultLcCvQhKIERM-3" vertex="1">
          <mxGeometry x="777" y="30" width="120" height="80" as="geometry" />
        </mxCell>
        <mxCell id="afZQ3mGeGORyMhH4Kc8F-37" style="edgeStyle=orthogonalEdgeStyle;rounded=0;orthogonalLoop=1;jettySize=auto;html=1;entryX=0;entryY=0.5;entryDx=0;entryDy=0;" parent="0G2xE4ultLcCvQhKIERM-3" source="afZQ3mGeGORyMhH4Kc8F-32" target="afZQ3mGeGORyMhH4Kc8F-36" edge="1">
          <mxGeometry relative="1" as="geometry" />
        </mxCell>
        <mxCell id="afZQ3mGeGORyMhH4Kc8F-32" value="" style="points=[[0.25,0.25,0],[0.5,0,0],[0.75,0.25,0],[1,0.5,0],[0.75,0.75,0],[0.5,1,0],[0.25,0.75,0],[0,0.5,0]];shape=mxgraph.bpmn.gateway2;html=1;verticalLabelPosition=bottom;labelBackgroundColor=#ffffff;verticalAlign=top;align=center;perimeter=rhombusPerimeter;outlineConnect=0;outline=none;symbol=none;gwType=exclusive;" parent="0G2xE4ultLcCvQhKIERM-3" vertex="1">
          <mxGeometry x="976" y="45" width="50" height="50" as="geometry" />
        </mxCell>
        <mxCell id="afZQ3mGeGORyMhH4Kc8F-33" value="Does the user need to edit the route?" style="text;html=1;align=center;verticalAlign=middle;whiteSpace=wrap;rounded=0;" parent="0G2xE4ultLcCvQhKIERM-3" vertex="1">
          <mxGeometry x="940" y="10" width="120" height="30" as="geometry" />
        </mxCell>
        <mxCell id="afZQ3mGeGORyMhH4Kc8F-36" value="" style="shape=mxgraph.bpmn.shape;html=1;verticalLabelPosition=bottom;labelBackgroundColor=#ffffff;verticalAlign=top;perimeter=ellipsePerimeter;outline=end;symbol=general;" parent="0G2xE4ultLcCvQhKIERM-3" vertex="1">
          <mxGeometry x="1120" y="45" width="50" height="50" as="geometry" />
        </mxCell>
        <mxCell id="afZQ3mGeGORyMhH4Kc8F-38" value="No" style="text;html=1;align=center;verticalAlign=middle;whiteSpace=wrap;rounded=0;" parent="0G2xE4ultLcCvQhKIERM-3" vertex="1">
          <mxGeometry x="1009" y="70" width="120" height="30" as="geometry" />
        </mxCell>
        <mxCell id="0G2xE4ultLcCvQhKIERM-4" value="&lt;span style=&quot;font-weight: normal;&quot;&gt;&lt;font style=&quot;font-size: 14px;&quot;&gt;MyWaze&lt;/font&gt;&lt;/span&gt;" style="swimlane;horizontal=0;whiteSpace=wrap;html=1;startSize=23;" parent="1" vertex="1">
          <mxGeometry x="180" y="290" width="1220" height="330" as="geometry" />
        </mxCell>
        <mxCell id="0G2xE4ultLcCvQhKIERM-19" value="" style="endArrow=none;dashed=1;html=1;dashPattern=1 3;strokeWidth=2;rounded=0;" parent="0G2xE4ultLcCvQhKIERM-4" source="afZQ3mGeGORyMhH4Kc8F-23" edge="1">
          <mxGeometry width="50" height="50" relative="1" as="geometry">
            <mxPoint x="836.52" y="70" as="sourcePoint" />
            <mxPoint x="836.52" y="-70" as="targetPoint" />
          </mxGeometry>
        </mxCell>
        <mxCell id="0G2xE4ultLcCvQhKIERM-23" value="" style="shape=flexArrow;endArrow=classic;html=1;rounded=0;width=5.76;endSize=2.7312;endWidth=6.9184;" parent="0G2xE4ultLcCvQhKIERM-4" edge="1">
          <mxGeometry width="50" height="50" relative="1" as="geometry">
            <mxPoint x="836" y="-60" as="sourcePoint" />
            <mxPoint x="836" y="-70" as="targetPoint" />
          </mxGeometry>
        </mxCell>
        <mxCell id="7a84cebc1def654-1" value="Input Starting Point" style="shape=mxgraph.bpmn.shape;html=1;verticalLabelPosition=bottom;labelBackgroundColor=#ffffff;verticalAlign=top;perimeter=ellipsePerimeter;outline=standard;symbol=general;" parent="0G2xE4ultLcCvQhKIERM-4" vertex="1">
          <mxGeometry x="70" y="85" width="50" height="50" as="geometry" />
        </mxCell>
        <mxCell id="7a84cebc1def654-4" value="" style="shape=message;whiteSpace=wrap;html=1;" parent="0G2xE4ultLcCvQhKIERM-4" vertex="1">
          <mxGeometry x="75" y="95" width="40" height="30" as="geometry" />
        </mxCell>
        <mxCell id="0G2xE4ultLcCvQhKIERM-32" value="" style="shape=flexArrow;endArrow=classic;html=1;rounded=0;width=5.76;endSize=2.7312;endWidth=6.9184;" parent="0G2xE4ultLcCvQhKIERM-4" edge="1">
          <mxGeometry width="50" height="50" relative="1" as="geometry">
            <mxPoint x="94.89" y="75" as="sourcePoint" />
            <mxPoint x="94.89" y="85" as="targetPoint" />
          </mxGeometry>
        </mxCell>
        <mxCell id="0G2xE4ultLcCvQhKIERM-5" value="" style="endArrow=none;dashed=1;html=1;dashPattern=1 3;strokeWidth=2;rounded=0;exitX=0.5;exitY=0;exitDx=0;exitDy=0;" parent="0G2xE4ultLcCvQhKIERM-4" source="7a84cebc1def654-1" target="0G2xE4ultLcCvQhKIERM-6" edge="1">
          <mxGeometry width="50" height="50" relative="1" as="geometry">
            <mxPoint x="310" y="160" as="sourcePoint" />
            <mxPoint x="125" y="-70" as="targetPoint" />
          </mxGeometry>
        </mxCell>
        <mxCell id="0G2xE4ultLcCvQhKIERM-6" value="" style="ellipse;whiteSpace=wrap;html=1;" parent="0G2xE4ultLcCvQhKIERM-4" vertex="1">
          <mxGeometry x="85" y="-70" width="20" height="20" as="geometry" />
        </mxCell>
        <mxCell id="0G2xE4ultLcCvQhKIERM-8" value="Adds a stop" style="points=[[0.25,0,0],[0.5,0,0],[0.75,0,0],[1,0.25,0],[1,0.5,0],[1,0.75,0],[0.75,1,0],[0.5,1,0],[0.25,1,0],[0,0.75,0],[0,0.5,0],[0,0.25,0]];shape=mxgraph.bpmn.task2;whiteSpace=wrap;rectStyle=rounded;size=10;html=1;container=1;expand=0;collapsible=0;taskMarker=service;" parent="0G2xE4ultLcCvQhKIERM-4" vertex="1">
          <mxGeometry x="280" y="70" width="120" height="80" as="geometry" />
        </mxCell>
        <mxCell id="0G2xE4ultLcCvQhKIERM-40" value="" style="points=[[0.25,0.25,0],[0.5,0,0],[0.75,0.25,0],[1,0.5,0],[0.75,0.75,0],[0.5,1,0],[0.25,0.75,0],[0,0.5,0]];shape=mxgraph.bpmn.gateway2;html=1;verticalLabelPosition=bottom;labelBackgroundColor=#ffffff;verticalAlign=top;align=center;perimeter=rhombusPerimeter;outlineConnect=0;outline=none;symbol=none;gwType=exclusive;" parent="0G2xE4ultLcCvQhKIERM-4" vertex="1">
          <mxGeometry x="470" y="85" width="50" height="50" as="geometry" />
        </mxCell>
        <mxCell id="afZQ3mGeGORyMhH4Kc8F-1" value="" style="points=[[0.25,0.25,0],[0.5,0,0],[0.75,0.25,0],[1,0.5,0],[0.75,0.75,0],[0.5,1,0],[0.25,0.75,0],[0,0.5,0]];shape=mxgraph.bpmn.gateway2;html=1;verticalLabelPosition=bottom;labelBackgroundColor=#ffffff;verticalAlign=top;align=center;perimeter=rhombusPerimeter;outlineConnect=0;outline=none;symbol=none;gwType=exclusive;" parent="0G2xE4ultLcCvQhKIERM-4" vertex="1">
          <mxGeometry x="170" y="85" width="50" height="50" as="geometry" />
        </mxCell>
        <mxCell id="afZQ3mGeGORyMhH4Kc8F-2" style="edgeStyle=orthogonalEdgeStyle;rounded=0;orthogonalLoop=1;jettySize=auto;html=1;entryX=0;entryY=0.5;entryDx=0;entryDy=0;entryPerimeter=0;" parent="0G2xE4ultLcCvQhKIERM-4" source="7a84cebc1def654-1" target="afZQ3mGeGORyMhH4Kc8F-1" edge="1">
          <mxGeometry relative="1" as="geometry" />
        </mxCell>
        <mxCell id="afZQ3mGeGORyMhH4Kc8F-3" style="edgeStyle=orthogonalEdgeStyle;rounded=0;orthogonalLoop=1;jettySize=auto;html=1;entryX=0;entryY=0.5;entryDx=0;entryDy=0;entryPerimeter=0;" parent="0G2xE4ultLcCvQhKIERM-4" source="afZQ3mGeGORyMhH4Kc8F-1" target="0G2xE4ultLcCvQhKIERM-8" edge="1">
          <mxGeometry relative="1" as="geometry" />
        </mxCell>
        <mxCell id="afZQ3mGeGORyMhH4Kc8F-4" style="edgeStyle=orthogonalEdgeStyle;rounded=0;orthogonalLoop=1;jettySize=auto;html=1;entryX=0;entryY=0.5;entryDx=0;entryDy=0;entryPerimeter=0;" parent="0G2xE4ultLcCvQhKIERM-4" source="0G2xE4ultLcCvQhKIERM-8" target="0G2xE4ultLcCvQhKIERM-40" edge="1">
          <mxGeometry relative="1" as="geometry" />
        </mxCell>
        <mxCell id="afZQ3mGeGORyMhH4Kc8F-5" value="Does the user need another stop?" style="text;html=1;align=center;verticalAlign=middle;whiteSpace=wrap;rounded=0;" parent="0G2xE4ultLcCvQhKIERM-4" vertex="1">
          <mxGeometry x="435" y="140" width="120" height="30" as="geometry" />
        </mxCell>
        <mxCell id="afZQ3mGeGORyMhH4Kc8F-7" value="Yes" style="text;html=1;align=center;verticalAlign=middle;whiteSpace=wrap;rounded=0;" parent="0G2xE4ultLcCvQhKIERM-4" vertex="1">
          <mxGeometry x="280" y="20" width="120" height="30" as="geometry" />
        </mxCell>
        <mxCell id="afZQ3mGeGORyMhH4Kc8F-9" style="edgeStyle=orthogonalEdgeStyle;rounded=0;orthogonalLoop=1;jettySize=auto;html=1;entryX=0.5;entryY=0;entryDx=0;entryDy=0;entryPerimeter=0;" parent="0G2xE4ultLcCvQhKIERM-4" source="0G2xE4ultLcCvQhKIERM-40" target="afZQ3mGeGORyMhH4Kc8F-1" edge="1">
          <mxGeometry relative="1" as="geometry">
            <Array as="points">
              <mxPoint x="495" y="50" />
              <mxPoint x="195" y="50" />
            </Array>
          </mxGeometry>
        </mxCell>
        <mxCell id="afZQ3mGeGORyMhH4Kc8F-10" value="Process Route" style="points=[[0.25,0,0],[0.5,0,0],[0.75,0,0],[1,0.25,0],[1,0.5,0],[1,0.75,0],[0.75,1,0],[0.5,1,0],[0.25,1,0],[0,0.75,0],[0,0.5,0],[0,0.25,0]];shape=mxgraph.bpmn.task2;whiteSpace=wrap;rectStyle=rounded;size=10;html=1;container=1;expand=0;collapsible=0;taskMarker=service;" parent="0G2xE4ultLcCvQhKIERM-4" vertex="1">
          <mxGeometry x="590" y="70" width="120" height="80" as="geometry" />
        </mxCell>
        <mxCell id="afZQ3mGeGORyMhH4Kc8F-11" style="edgeStyle=orthogonalEdgeStyle;rounded=0;orthogonalLoop=1;jettySize=auto;html=1;entryX=0;entryY=0.5;entryDx=0;entryDy=0;entryPerimeter=0;" parent="0G2xE4ultLcCvQhKIERM-4" source="0G2xE4ultLcCvQhKIERM-40" target="afZQ3mGeGORyMhH4Kc8F-10" edge="1">
          <mxGeometry relative="1" as="geometry" />
        </mxCell>
        <mxCell id="afZQ3mGeGORyMhH4Kc8F-12" value="No" style="text;html=1;align=center;verticalAlign=middle;whiteSpace=wrap;rounded=0;" parent="0G2xE4ultLcCvQhKIERM-4" vertex="1">
          <mxGeometry x="490" y="83" width="120" height="30" as="geometry" />
        </mxCell>
        <mxCell id="afZQ3mGeGORyMhH4Kc8F-28" style="edgeStyle=orthogonalEdgeStyle;rounded=0;orthogonalLoop=1;jettySize=auto;html=1;endArrow=none;startFill=0;dashed=1;" parent="0G2xE4ultLcCvQhKIERM-4" source="afZQ3mGeGORyMhH4Kc8F-16" edge="1">
          <mxGeometry relative="1" as="geometry">
            <mxPoint x="745" y="110" as="targetPoint" />
          </mxGeometry>
        </mxCell>
        <mxCell id="afZQ3mGeGORyMhH4Kc8F-16" value="" style="shape=note;whiteSpace=wrap;html=1;backgroundOutline=1;darkOpacity=0.05;size=18;" parent="0G2xE4ultLcCvQhKIERM-4" vertex="1">
          <mxGeometry x="720" y="164" width="50" height="60" as="geometry" />
        </mxCell>
        <mxCell id="afZQ3mGeGORyMhH4Kc8F-18" value="Route Data" style="text;html=1;align=center;verticalAlign=middle;whiteSpace=wrap;rounded=0;" parent="0G2xE4ultLcCvQhKIERM-4" vertex="1">
          <mxGeometry x="685" y="227" width="120" height="30" as="geometry" />
        </mxCell>
        <mxCell id="afZQ3mGeGORyMhH4Kc8F-25" value="Display Route" style="points=[[0.25,0,0],[0.5,0,0],[0.75,0,0],[1,0.25,0],[1,0.5,0],[1,0.75,0],[0.75,1,0],[0.5,1,0],[0.25,1,0],[0,0.75,0],[0,0.5,0],[0,0.25,0]];shape=mxgraph.bpmn.task2;whiteSpace=wrap;rectStyle=rounded;size=10;html=1;container=1;expand=0;collapsible=0;taskMarker=service;" parent="0G2xE4ultLcCvQhKIERM-4" vertex="1">
          <mxGeometry x="777" y="70" width="120" height="80" as="geometry" />
        </mxCell>
        <mxCell id="afZQ3mGeGORyMhH4Kc8F-27" style="edgeStyle=orthogonalEdgeStyle;rounded=0;orthogonalLoop=1;jettySize=auto;html=1;entryX=0;entryY=0.5;entryDx=0;entryDy=0;entryPerimeter=0;" parent="0G2xE4ultLcCvQhKIERM-4" source="afZQ3mGeGORyMhH4Kc8F-10" target="afZQ3mGeGORyMhH4Kc8F-25" edge="1">
          <mxGeometry relative="1" as="geometry" />
        </mxCell>
        <mxCell id="afZQ3mGeGORyMhH4Kc8F-23" value="" style="ellipse;whiteSpace=wrap;html=1;" parent="0G2xE4ultLcCvQhKIERM-4" vertex="1">
          <mxGeometry x="827" y="60" width="20" height="20" as="geometry" />
        </mxCell>
        <mxCell id="afZQ3mGeGORyMhH4Kc8F-30" value="Edit Route" style="points=[[0.25,0,0],[0.5,0,0],[0.75,0,0],[1,0.25,0],[1,0.5,0],[1,0.75,0],[0.75,1,0],[0.5,1,0],[0.25,1,0],[0,0.75,0],[0,0.5,0],[0,0.25,0]];shape=mxgraph.bpmn.task2;whiteSpace=wrap;rectStyle=rounded;size=10;html=1;container=1;expand=0;collapsible=0;taskMarker=service;" parent="0G2xE4ultLcCvQhKIERM-4" vertex="1">
          <mxGeometry x="941" y="70" width="120" height="80" as="geometry" />
        </mxCell>
        <mxCell id="afZQ3mGeGORyMhH4Kc8F-40" style="edgeStyle=orthogonalEdgeStyle;rounded=0;orthogonalLoop=1;jettySize=auto;html=1;entryX=0.5;entryY=1;entryDx=0;entryDy=0;entryPerimeter=0;" parent="0G2xE4ultLcCvQhKIERM-4" source="afZQ3mGeGORyMhH4Kc8F-30" target="afZQ3mGeGORyMhH4Kc8F-10" edge="1">
          <mxGeometry relative="1" as="geometry">
            <Array as="points">
              <mxPoint x="1001" y="290" />
              <mxPoint x="650" y="290" />
            </Array>
          </mxGeometry>
        </mxCell>
        <mxCell id="seqTHwSmE0_XoMYoNXrs-2" value="" style="shape=cylinder3;whiteSpace=wrap;html=1;boundedLbl=1;backgroundOutline=1;size=15;" vertex="1" parent="0G2xE4ultLcCvQhKIERM-4">
          <mxGeometry x="1110" y="70" width="60" height="80" as="geometry" />
        </mxCell>
        <mxCell id="seqTHwSmE0_XoMYoNXrs-3" value="Route DS" style="text;html=1;align=center;verticalAlign=middle;whiteSpace=wrap;rounded=0;" vertex="1" parent="0G2xE4ultLcCvQhKIERM-4">
          <mxGeometry x="1080" y="150" width="120" height="30" as="geometry" />
        </mxCell>
        <mxCell id="afZQ3mGeGORyMhH4Kc8F-35" style="edgeStyle=orthogonalEdgeStyle;rounded=0;orthogonalLoop=1;jettySize=auto;html=1;entryX=0.5;entryY=0;entryDx=0;entryDy=0;entryPerimeter=0;exitX=0.5;exitY=1;exitDx=0;exitDy=0;exitPerimeter=0;" parent="1" source="afZQ3mGeGORyMhH4Kc8F-32" target="afZQ3mGeGORyMhH4Kc8F-30" edge="1">
          <mxGeometry relative="1" as="geometry" />
        </mxCell>
        <mxCell id="afZQ3mGeGORyMhH4Kc8F-39" value="Yes" style="text;html=1;align=center;verticalAlign=middle;whiteSpace=wrap;rounded=0;" parent="1" vertex="1">
          <mxGeometry x="1140" y="240" width="120" height="30" as="geometry" />
        </mxCell>
        <mxCell id="seqTHwSmE0_XoMYoNXrs-1" style="edgeStyle=orthogonalEdgeStyle;rounded=0;orthogonalLoop=1;jettySize=auto;html=1;endArrow=none;startFill=0;dashed=1;exitX=0;exitY=0;exitDx=50;exitDy=39;exitPerimeter=0;" edge="1" parent="1" source="afZQ3mGeGORyMhH4Kc8F-16">
          <mxGeometry relative="1" as="geometry">
            <mxPoint x="1017" y="110" as="targetPoint" />
            <mxPoint x="935" y="464" as="sourcePoint" />
            <Array as="points">
              <mxPoint x="1100" y="493" />
              <mxPoint x="1100" y="100" />
              <mxPoint x="1017" y="100" />
            </Array>
          </mxGeometry>
        </mxCell>
        <mxCell id="seqTHwSmE0_XoMYoNXrs-4" style="edgeStyle=orthogonalEdgeStyle;rounded=0;orthogonalLoop=1;jettySize=auto;html=1;endArrow=none;startFill=0;dashed=1;exitX=0.5;exitY=0;exitDx=0;exitDy=0;exitPerimeter=0;entryX=0.75;entryY=0;entryDx=0;entryDy=0;endFill=1;startArrow=classic;" edge="1" parent="1" source="seqTHwSmE0_XoMYoNXrs-2" target="afZQ3mGeGORyMhH4Kc8F-38">
          <mxGeometry relative="1" as="geometry">
            <mxPoint x="1027" y="120" as="targetPoint" />
            <mxPoint x="960" y="503" as="sourcePoint" />
            <Array as="points">
              <mxPoint x="1320" y="320" />
              <mxPoint x="1279" y="320" />
            </Array>
          </mxGeometry>
        </mxCell>
      </root>
    </mxGraphModel>
  </diagram>
</mxfile>
